<?xml version="1.0" encoding="UTF-8"?>
<svg id="Layer_2" data-name="Layer 2" xmlns="http://www.w3.org/2000/svg" viewBox="0 0 675.08 131.64">
  <defs>
    <style>
      .cls-1 {
        fill: #f55b2b;
      }
    </style>
  </defs>
  <g id="Layer_1-2" data-name="Layer 1">
    <g>
      <g>
        <path d="M0,97.32c1.24-1.78,2.06-3.84,2.06-6.59V6.59C2.06,3.71,1.24,1.92,0,0h35.96c15.65,0,32.53,9.33,32.53,26.9,0,15.1-12.35,21.69-29.24,23.88l36.65,46.53h-10.98c-3.29,0-6.86-1.65-8.92-4.25l-29.22-36.5c-2.66-3.32-.29-8.25,3.96-8.25h0c8.51,0,23.88-5.49,23.88-22.1,0-18.39-12.9-21.14-21.14-21.14H15.51v85.38s0,.06,0,.09c.02,3.71-2.88,6.77-6.59,6.77H0Z"/>
        <path d="M90.71,70.14c0,11.8,5.49,24.98,22.92,24.98,13.31,0,23.06-7.55,27.73-17.02l2.61,3.84c-6.31,11.39-17.3,17.43-30.75,17.43-19.63,0-36.51-12.9-36.51-34.59s16.61-35.55,34.73-35.55c11.12,0,28.69,5.22,28.69,19.08,0,9.61-8.37,17.57-20.59,18.81l-28.83,3.02ZM110.61,32.94c-14.28,0-19.9,15.24-19.9,34.18l23.61-2.33c9.2-.96,15.51-7.14,15.51-14.83,0-9.2-8.92-17.02-19.22-17.02Z"/>
        <path d="M163.35,64.24c0,15.1,6.45,31.43,19.77,31.43,10.43,0,17.43-5.08,21.28-11.26v9.75c-4.8,3.02-11.39,5.22-19.08,5.22-20.32,0-35.14-15.24-35.14-35.55s14.69-34.59,34.46-34.59c8.37,0,14.82,2.61,19.77,6.59v12.63c-2.75-9.06-10.84-15.51-20.04-15.51-14.55,0-21,15.92-21,31.3Z"/>
        <path d="M214.02,97.32c1.37-2.2,2.47-4.67,2.47-7.82v-47.91c0-4.53-.96-8.1-3.84-10.3h16.61v58.48c0,3.02,1.1,5.49,2.47,7.55h-17.71Z"/>
        <path d="M245.95,131.64h0s0-83.73,0-83.73c0-4.8-.14-12.22-2.75-16.61h15.24v10.3c3.57-6.59,11.39-11.81,22.65-11.81,19.22,0,29.79,15.24,29.79,34.32s-11.39,35-30.34,35c-10.57,0-18.26-4.8-21.83-10.71v26.24c0,7.88-5.2,14.8-12.77,17ZM277.93,33.49c-8.65,0-19.49,5.22-19.49,20.87v25.12c2.61,12.63,10.71,14.69,19.77,14.69,11.94,0,19.49-10.29,19.49-29.92,0-18.12-6.45-30.75-19.77-30.75Z"/>
        <path d="M334.06,70.14c0,11.8,5.49,24.98,22.92,24.98,13.32,0,23.06-7.55,27.73-17.02l2.61,3.84c-6.31,11.39-17.3,17.43-30.75,17.43-19.63,0-36.51-12.9-36.51-34.59s16.61-35.55,34.73-35.55c11.12,0,28.69,5.22,28.69,19.08,0,9.61-8.37,17.57-20.59,18.81l-28.83,3.02ZM353.96,32.94c-14.28,0-19.9,15.24-19.9,34.18l23.61-2.33c9.2-.96,15.51-7.14,15.51-14.83,0-9.2-8.92-17.02-19.22-17.02Z"/>
        <path d="M395.64,97.32c1.78,0,2.88-2.2,2.88-6.18V11.94c0-4.8-1.65-8.51-4.12-11.53h16.88v47.36c2.2-6.73,10.84-18.39,21.83-18.39,20.04,0,30.34,15.37,30.34,34.45s-11.12,35.28-30.75,35.28c-9.75,0-18.12-6.18-21.41-14.14-1.1,12.22-8.1,12.35-15.65,12.35ZM431.05,35.28c-11.67,0-19.77,14.41-19.77,28.69,0,22.38,8.1,31.16,19.49,31.16s19.49-16.88,19.49-31.16-7.55-28.69-19.22-28.69Z"/>
        <path d="M516.86,84.69c-2.06,4.67-9.06,14.69-25.39,14.69-10.84,0-20.73-4.39-20.73-17.16,0-22.51,30.75-25.39,46.12-28.28,0-16.88-5.35-22.51-12.22-22.51-10.02,0-23.2,11.53-28.28,16.61l-3.29-10.29c6.59-5.22,20.32-9.61,32.53-9.61,12.9,0,24.16,4.94,24.16,19.08v38.3c0,6.04,1.37,8.24,4.12,11.8h-7.14c-5.9,0-9.88-3.84-9.88-9.75v-2.88ZM482.96,78.52c0,4.8,1.37,16.47,13.32,16.47,10.71,0,20.59-9.2,20.59-22.24v-15.92c-26.08,5.35-33.91,10.29-33.91,21.69Z"/>
        <path d="M543.33,86.34c6.04,4.8,19.36,9.33,30.34,9.33,9.06,0,16.47-3.02,16.47-11.94s-7.82-10.71-16.33-12.35l-5.35-1.1c-13.31-2.75-28-6.45-28-20.73s14.96-20.32,33.08-20.32c10.29,0,17.71,1.92,22.24,4.67l-1.1,7.14c-7.55-4.94-13.73-8.1-22.65-8.1-7.14,0-22.24,2.06-22.24,10.71,0,1.24.41,2.33.82,3.43,2.47,5.77,11.81,7.41,20.73,8.92,20.87,3.57,27.73,8.92,27.73,21.55,0,9.88-10.29,21.83-32.26,21.83-10.43,0-19.08-2.75-23.47-5.22v-7.82Z"/>
        <path d="M621.82,70.14c0,11.8,5.49,24.98,22.92,24.98,13.32,0,23.06-7.55,27.73-17.02l2.61,3.84c-6.31,11.39-17.3,17.43-30.75,17.43-19.63,0-36.51-12.9-36.51-34.59s16.61-35.55,34.73-35.55c11.12,0,28.69,5.22,28.69,19.08,0,9.61-8.37,17.57-20.59,18.81l-28.83,3.02ZM641.72,32.94c-14.28,0-19.9,15.24-19.9,34.18l23.61-2.33c9.2-.96,15.51-7.14,15.51-14.83,0-9.2-8.92-17.02-19.22-17.02Z"/>
      </g>
      <path class="cls-1" d="M221.64,27.27h0c0-5.7-4.62-10.31-10.31-10.31h0c5.7,0,10.31-4.62,10.31-10.31h0c0,5.7,4.62,10.31,10.31,10.31h0c-5.7,0-10.31,4.62-10.31,10.31Z"/>
    </g>
  </g>
</svg>